{"title":"Devon ke Dev MahaDev 7th Aug.12 Esubs~JamMafia","uid":7514358,"size":101413338,"categoryP":"video","categoryS":"tv_shows","magnet":"?xt=urn:btih:5e4e003b132507eebfcf3ad5c52b8ad1f51d50aa&amp;dn=Devon+ke+Dev+MahaDev+7th+Aug.12+Esubs%7EJamMafia&amp;tr=udp%3A%2F%2Ftracker.openbittorrent.com%3A80&amp;tr=udp%3A%2F%2Fopen.demonii.com%3A1337&amp;tr=udp%3A%2F%2Ftracker.coppersurfer.tk%3A6969&amp;tr=udp%3A%2F%2Fexodus.desync.com%3A6969","seeders":0,"leechers":1,"uploader":"JamMafia","files":6,"time":1344384364,"description":"Devon Ke Dev... Mahadev Episode of 7th August 2012\nIMDB - http://www.imdb.com/title/tt2147999/\n\n\t\n\n\n\nDevon Ke Dev... Mahadev Episode of 7th August 2012\nIMDB - http://www.imdb.com/title/tt2147999/\n\n\n\n\n\n\n\nProvided by DesiRipper\nBrought To You By JamMafia{TMRG} \n\nDetails:.\nFormat : Windows Media \n\nVideo \nID : 2 \nFormat : VC-1 \nFormat profile : Main \nCodec ID : WMV3 \nCodec ID/Info : Windows Media Video 9 \nCodec ID/Hint : WMV3 \nDescription of the codec : Windows Media Video 9 \nDuration : 25mn 56s \nBit rate mode : Constant \nBit rate : 448 Kbps \nWidth : 320 pixels \nHeight : 240 pixels \nDisplay aspect ratio : 4:3 \nFrame rate : 25.000 fps \nBit depth : 8 bits \nScan type : Progressive \nCompression mode : Lossy \nBits/(Pixel*Frame) : 0.233 \nStream size : 83.1 MiB (87%) \n\nAudio \nID : 1 \nFormat : WMA \nFormat version : Version 2 \nCodec ID : 161 \nCodec ID/Info : Windows Media Audio \nDescription of the codec : Windows Media Audio 9.2 - 64 kbps, 44 kHz, stereo (A/V) 1-pass CBR \nDuration : 25mn 56s \nBit rate mode : Constant \nBit rate : 64.0 Kbps \nChannel(s) : 2 channels \nSampling rate : 44.1 KHz \nBit depth : 16 bits \nStream size : 11.9 MiB (12%) \n\n\nScreenShots:.\n &lt;a href=&quot;\nhttp://img826.imageshack.us/img826/3474/mahadev7thaugengsubsjam.jpg&quot; rel=&quot;nofollow&quot; target=&quot;_NEW&quot;&gt;\nhttp://img826.imageshack.us/img826/3474/mahadev7thaugengsubsjam.jpg&lt;/a&gt;\n\nNote :::::This Content is Recorded From T.V so This Rip Contains Ad-Break's... \n\nGreetz:.\nIt takes 5 hours to encode\n\nAnd Just 5 seconds to say thank you............\n\nMovie Encoded my JamMafia\n\nJamMafia FB Page:\n\n","torrent":{"xt":"urn:btih:5e4e003b132507eebfcf3ad5c52b8ad1f51d50aa","amp;dn":"Devon+ke+Dev+MahaDev+7th+Aug.12+Esubs%7EJamMafia","amp;tr":["udp%3A%2F%2Ftracker.openbittorrent.com%3A80","udp%3A%2F%2Fopen.demonii.com%3A1337","udp%3A%2F%2Ftracker.coppersurfer.tk%3A6969","udp%3A%2F%2Fexodus.desync.com%3A6969"],"infoHash":"5e4e003b132507eebfcf3ad5c52b8ad1f51d50aa","infoHashBuffer":{"type":"Buffer","data":[94,78,0,59,19,37,7,238,191,207,58,213,197,43,138,209,245,29,80,170]},"announce":[],"urlList":[]}}